<svg xmlns="http://www.w3.org/2000/svg" style="display:none">
  <symbol id="icon-antenna" viewBox="0 0 32 32">
    <path d="M16 2C8.268 2 2 8.268 2 16s6.268 14 14 14 14-6.268 14-14S23.732 2 16 2Zm0 4a1 1 0 0 1 1 1v8.586l4.293 4.293A1 1 0 0 1 20.879 21.7l-4.707-4.707A1 1 0 0 1 15 16V7a1 1 0 0 1 1-1Zm0 20a1 1 0 1 1 0 2 1 1 0 0 1 0-2Z"/>
  </symbol>
  <symbol id="icon-clock" viewBox="0 0 32 32">
    <path d="M16 2C8.268 2 2 8.268 2 16s6.268 14 14 14 14-6.268 14-14S23.732 2 16 2Zm0 4a1 1 0 0 1 1 1v8h6a1 1 0 1 1 0 2h-7a1 1 0 0 1-1-1V7a1 1 0 0 1 1-1Zm0 20a1 1 0 1 1 0 2 1 1 0 0 1 0-2Z"/>
  </symbol>
  <symbol id="icon-diagram" viewBox="0 0 32 32">
    <path d="M5 4a3 3 0 0 0-3 3v18a3 3 0 0 0 3 3h22a3 3 0 0 0 3-3V7a3 3 0 0 0-3-3H5Zm0 4h22v18H5V8Zm3 3a1 1 0 0 0 0 2h6a1 1 0 0 0 0-2H8Zm0 6a1 1 0 0 0 0 2h10a1 1 0 0 0 0-2H8Zm0 6a1 1 0 0 0 0 2h4a1 1 0 0 0 0-2H8Z"/>
  </symbol>
  <symbol id="icon-astronaut" viewBox="0 0 32 32">
    <path d="M16 2C9.373 2 4 7.373 4 14a11.95 11.95 0 0 0 4.6 9.4C9.6 24.5 10.7 25 12 25h8c1.3 0 2.4-.5 3.4-1.6A11.95 11.95 0 0 0 28 14c0-6.627-5.373-12-12-12Zm0 4a8 8 0 0 1 8 8c0 1.4-.35 2.7-.95 3.8A8 8 0 0 1 16 22a8 8 0 0 1-7.05-4.2A7.98 7.98 0 0 1 8 14a8 8 0 0 1 8-8Zm0 3a3 3 0 1 0 0 6 3 3 0 0 0 0-6Zm-5 12c.7-1.6 2.2-2.8 4-3.2a4.97 4.97 0 0 0 2 0c1.8.4 3.3 1.6 4 3.2H11Z"/>
  </symbol>
  <symbol id="icon-instagram" viewBox="0 0 32 32">
    <path d="M10.4 2h11.2C24.6 2 28 5.4 28 10.4v11.2C28 26.6 24.6 30 19.6 30H10.4C5.4 30 2 26.6 2 21.6V10.4C2 5.4 5.4 2 10.4 2Zm-.2 4C7.2 6 6 7.2 6 10.2v11.6c0 3 1.2 4.2 4.2 4.2h11.6c3 0 4.2-1.2 4.2-4.2V10.2C26 7.2 24.8 6 21.8 6H10.2Zm12.3 2.2a1.4 1.4 0 1 0 0 2.8 1.4 1.4 0 0 0 0-2.8ZM16 9.3A6.7 6.7 0 1 0 16 22.7 6.7 6.7 0 0 0 16 9.3Zm0 3.4A3.3 3.3 0 1 1 16 19.3 3.3 3.3 0 0 1 16 12.7Z"/>
  </symbol>
  <symbol id="icon-twitter" viewBox="0 0 32 32">
    <path d="M28 8.2a10.7 10.7 0 0 1-3 .8 5.3 5.3 0 0 0 2.3-2.9 10.6 10.6 0 0 1-3.3 1.3 5.2 5.2 0 0 0-8.9 4.7A14.8 14.8 0 0 1 4.8 6.4a5.2 5.2 0 0 0 1.6 7 5.2 5.2 0 0 1-2.3-.6v.1a5.2 5.2 0 0 0 4.2 5.1 5.2 5.2 0 0 1-2.3.1 5.3 5.3 0 0 0 4.9 3.6A10.5 10.5 0 0 1 3 24.8a14.8 14.8 0 0 0 8.1 2.4c9.7 0 15-8.1 15-15.1v-.7A10.7 10.7 0 0 0 28 8.2Z"/>
  </symbol>
  <symbol id="icon-facebook" viewBox="0 0 32 32">
    <path d="M21 2h-4.8c-5.4 0-8.9 3.6-8.9 9.2V14H3v5h4.3v11h5.7V19h4.6l.8-5h-5.4v-3.7c0-1.6.4-2.3 2.3-2.3H21V2Z"/>
  </symbol>
  <symbol id="icon-linkedin" viewBox="0 0 32 32">
    <path d="M7.2 10.8A2.8 2.8 0 1 0 7.2 16.4a2.8 2.8 0 0 0 0-5.6Zm-2.4 3.4h4.8V26H4.8V14.2Zm7.2 0h4.6v1.6h.1c.6-1.2 2.1-2.5 4.4-2.5 4.7 0 5.5 3.1 5.5 7.1V26h-4.8v-10.3c0-2.4-.1-5.6-3.4-5.6-3.4 0-4 2.6-4 5.4V26H12V14.2Z"/>
  </symbol>
  <symbol id="icon-envelope" viewBox="0 0 32 32">
    <path d="M4 7a2 2 0 0 0-2 2v14a2 2 0 0 0 2 2h24a2 2 0 0 0 2-2V9a2 2 0 0 0-2-2H4Zm2.1 2h19.8l-9.9 8.2L6.1 9Zm-2.1 2.4V23h24V11.4l-11.4 9.5a1 1 0 0 1-1.2 0L4 11.4Z"/>
  </symbol>
  <symbol id="icon-phone" viewBox="0 0 32 32">
    <path d="M9.8 2a2 2 0 0 0-2 2v4.1a2 2 0 0 0 .6 1.5l2.2 2.2a14.3 14.3 0 0 0 5.7 5.7l2.2 2.2a2 2 0 0 0 1.5.6h4.1a2 2 0 0 0 2-2V9.7a2 2 0 0 0-1.6-2L22 6.8l-4.7-2.8A11 11 0 0 1 11 2.9L9.8 2Zm-1.1 4.2a1 1 0 0 1 1-1h.6l1.3 2.2-2.6 1.6-1.1-1.1a1 1 0 0 1-.3-.8V6.2Z"/>
  </symbol>
  <symbol id="icon-user" viewBox="0 0 32 32">
    <path d="M16 16a5 5 0 1 0 0-10 5 5 0 0 0 0 10zm0 2c-6 0-10 3.5-10 6.5V28h20v-3.5C26 21.5 22 18 16 18z"/>
  </symbol>
  <symbol id="icon-check" viewBox="0 0 24 24">
    <path d="M20.285 5.71a1 1 0 0 0-1.57-1.28l-9.2 11-4-4a1 1 0 1 0-1.43 1.4l4.7 4.7a1 1 0 0 0 1.43 0l9.5-11.53z"/>
  </symbol>
  <symbol id="icon-send" viewBox="0 0 24 24">
    <path d="M2.06 11.53a1 1 0 0 0 .08 1.79l7.13 2.35 2.36 7.13a1 1 0 0 0 1.87.08l8-20a1 1 0 0 0-1.31-1.31l-20 8zm9.48 2.18-4.48-1.48 13.9-5.56-9.42 7.04zm1.02 1.02 7.04-9.42-5.56 13.9-1.48-4.48z"/>
  </symbol>
  <symbol id="icon-close" viewBox="0 0 8 8">
    <path d="M7.06 1.06 5.999 0 4 1.999 2.001 0 .94 1.06 2.939 3.06.94 5.06l1.06 1.06L4 4.121l1.999 1.999 1.06-1.06L5.061 3.06 7.06 1.06Z"/>
  </symbol>
</svg>
